# xmcd
#
# Track frame offsets:
#	175
#	13634
#	28433
#	41636
#	73366
#	91697
#	103859
#	114536
#	126455
#	142393
#	156933
#	172647
#
# Disc length: 2449 seconds
#
# Revision: 1
# Processed by: cddbd v1.4PL0 Copyright (c) Steve Scherf et al.
# Submitted via: audiograbber 1.82.02
#
DISCID=ae098f0c
DTITLE=Pete Hawkes - Unspoken Riddles
DYEAR=1900
DGENRE=
TTITLE0=Lord Berek's Last Change
TTITLE1=No Remedy for a Sad Wednesday
TTITLE2=The Irish Ladies Dream
TTITLE3=Riddle or Resoloution
TTITLE4=The Bellylaugh Rag
TTITLE5=Jerima's Lullaby
TTITLE6=Quiet Desperation
TTITLE7=No Whisky for Paddy
TTITLE8=Ada's Favourite
TTITLE9=The Leprechauns Dance
TTITLE10=Thinking of Sarah
TTITLE11=Rueban's Fancy
EXTD=
EXTT0=
EXTT1=
EXTT2=
EXTT3=
EXTT4=
EXTT5=
EXTT6=
EXTT7=
EXTT8=
EXTT9=
EXTT10=
EXTT11=
PLAYORDER=
